<?xml version="1.0" encoding="UTF-8"?>
<svg id="Capa_1" data-name="Capa 1" xmlns="http://www.w3.org/2000/svg" viewBox="0 0 283 283">
  <defs>
    <style>
      .cls-1 {
        fill: #fff;
      }

      .cls-2 {
        fill: #f3802e;
      }

      .cls-3 {
        fill: #191919;
      }
    </style>
  </defs>
  <path class="cls-3" d="M282.91,141.5c0,78.1-63.31,141.42-141.41,141.42S.09,219.6.09,141.5,63.4.09,141.5.09s141.41,63.31,141.41,141.41Z"/>
  <g>
    <path class="cls-1" d="M77.28,241.05v-12.24c0-13.46,1.17-26.2,3.52-38.23,2.34-12.03,5.66-23.24,9.94-33.65L54.34,36.44h36.09l20.19,79.21c4.28-10.39,9.23-19.93,14.84-28.59,5.61-8.67,11.47-16.46,17.58-23.4,6.12-6.93,12.28-13.09,18.5-18.5,6.22-5.4,12.08-9.94,17.58-13.61l21.41,17.13c-12.23,11.62-23.7,22.99-34.41,34.1-10.7,11.12-20.03,23.45-27.98,37.01-7.95,13.56-14.22,29.11-18.81,46.64-4.59,17.54-6.88,38.54-6.88,63v11.62h-35.17Z"/>
    <path class="cls-2" d="M174.99,242.12c-6.22-6.22-9.32-13.61-9.32-22.17s3.11-16.26,9.32-22.48c6.22-6.22,13.62-9.33,22.18-9.33s16.21,3.11,22.32,9.33c6.12,6.22,9.17,13.72,9.17,22.48s-3.06,15.95-9.17,22.17c-6.12,6.22-13.56,9.33-22.32,9.33s-15.96-3.11-22.18-9.33Z"/>
  </g>
</svg>